<mxfile host="app.diagrams.net" modified="2023-11-01T09:51:33.992Z" agent="Mozilla/5.0 (Windows NT 10.0; Win64; x64) AppleWebKit/537.36 (KHTML, like Gecko) Chrome/118.0.0.0 Safari/537.36" version="21.7.5" etag="EW8vT9H0TdBx1R4h8em8" type="github">
  <diagram name="第 1 页" id="IGLUlNHygLyYofY8g1ZD">
    <mxGraphModel>
      <root>
        <mxCell id="0" />
        <mxCell id="1" parent="0" />
      </root>
    </mxGraphModel>
  </diagram>
</mxfile>
